<svg xmlns="http://www.w3.org/2000/svg" width="16" height="16" viewBox="0 0 12 13" fill="none">
    <g clip-path="url(#clip0_1333_1876)">
        <path d="M0 5.6875H2.25V12.1875H0V5.6875ZM5.03025 11.9494C5.175 12.1038 5.349 12.1851 5.538 12.1875H8.625C8.817 12.1875 9.009 12.1079 9.15525 11.9494L11.0302 9.91819C11.1727 9.76381 11.2463 9.54688 11.25 9.34375V6.5C11.25 6.05069 10.9163 5.6875 10.5 5.6875H6.75L7.875 3.65625C7.875 3.65625 8.25 3.01275 8.25 2.4375V1.625C8.25 1.17569 7.91475 0.8125 7.5 0.8125L6.75 2.4375L3.75 5.6875V10.5625L5.03025 11.9494Z" fill="white"/>
    </g>
    <defs>
        <clipPath id="clip0_1333_1876">
            <rect width="16" height="16" fill="white"/>
        </clipPath>
    </defs>
</svg>