<svg width="192" height="73" viewBox="0 0 192 73" fill="none" xmlns="http://www.w3.org/2000/svg">
    <g clip-path="url(#clip0_1329_654)">
        <path d="M105.9 1.15326H124.463V70.5259H105.9V1.15326ZM127.109 1.15326H137.718V5.78106H143.018V10.4089H145.672V28.9053H143.018V33.5331H137.718V38.1609H143.018V42.7886H145.672V61.2851H143.018V65.9129H137.718V70.5406H127.109V1.16804V1.15326Z" fill="white"/>
        <path d="M98.374 70.5259H79.8111V1.15326H98.374V70.5259ZM77.1645 70.5259H66.5561V65.8981H61.2555V61.2703H58.6016V42.7739H61.2555V38.1461H66.5561V33.5183H61.2555V28.8905H58.6016V10.4089H61.2555V5.78106H66.5561V1.15326H77.1645V70.5259Z" fill="white"/>
        <path d="M26.4879 24.344H17.7571V35.4478H0V3.10492H17.1066V18.7478L23.5678 10.2684C25.8891 10.0688 27.959 9.9653 29.7702 9.9653C40.5709 9.9653 44.2524 12.9445 44.2524 22.9837V35.4478H26.4953V24.344H26.4879Z" fill="white"/>
        <path d="M29.1492 63.939L22.4367 68.0271H11.9909C2.65394 68.0271 0.938843 66.0607 0.938843 55.467H29.1418V53.5523H1.04234V43.5649H28.5947C40.0016 43.5649 46.7585 47.653 46.7585 54.5651V68.0345H29.1492V63.9464V63.939ZM29.1492 61.2111V58.7863H20.3667V61.6103L29.1492 61.2037V61.2111Z" fill="white"/>
        <path d="M160.398 0H178.207V5.80323H160.398V0ZM160.45 7.82142H178.207V32.2911H160.45V7.82142Z" fill="white"/>
        <path d="M160.945 58.742V53.9146H158.018V42.1085H160.945V35.847H178.702V42.1085H191.263V53.9146H178.702V56.5981H191.263V71.6865C188.838 71.9822 177.239 72.0414 176.98 72.0414C164.213 72.0414 160.938 69.6535 160.938 58.742H160.945Z" fill="white"/>
    </g>
    <defs>
        <clipPath id="clip0_1329_654">
            <rect width="191.27" height="72.0414" fill="white"/>
        </clipPath>
    </defs>
</svg>
